<mxfile host="app.diagrams.net" agent="Mozilla/5.0 (Windows NT 10.0; Win64; x64) AppleWebKit/537.36 (KHTML, like Gecko) Chrome/131.0.0.0 Safari/537.36" version="26.0.4">
  <diagram name="Page-1" id="eel01okYLY3oKTiitKxi">
    <mxGraphModel dx="1434" dy="786" grid="1" gridSize="10" guides="1" tooltips="1" connect="1" arrows="1" fold="1" page="1" pageScale="1" pageWidth="850" pageHeight="1100" math="0" shadow="0">
      <root>
        <mxCell id="0" />
        <mxCell id="1" parent="0" />
        <mxCell id="RFbmsJqFYA8VDSO2oFp7-1" value="&lt;div style=&quot;background-color: rgb(255, 255, 254); font-size: 14px; line-height: 19px; white-space: pre;&quot;&gt;&lt;font face=&quot;Times New Roman&quot; style=&quot;color: rgb(0, 0, 0);&quot;&gt;Pengguna&lt;/font&gt;&lt;/div&gt;" style="rounded=0;whiteSpace=wrap;html=1;fontFamily=Times New Roman;" vertex="1" parent="1">
          <mxGeometry x="120" y="220" width="170" height="80" as="geometry" />
        </mxCell>
        <mxCell id="RFbmsJqFYA8VDSO2oFp7-2" value="" style="endArrow=classic;html=1;rounded=0;" edge="1" parent="1">
          <mxGeometry width="50" height="50" relative="1" as="geometry">
            <mxPoint x="290" y="240" as="sourcePoint" />
            <mxPoint x="380" y="240" as="targetPoint" />
          </mxGeometry>
        </mxCell>
        <mxCell id="RFbmsJqFYA8VDSO2oFp7-3" value="" style="endArrow=classic;html=1;rounded=0;" edge="1" parent="1">
          <mxGeometry width="50" height="50" relative="1" as="geometry">
            <mxPoint x="380" y="280" as="sourcePoint" />
            <mxPoint x="290" y="280" as="targetPoint" />
          </mxGeometry>
        </mxCell>
        <mxCell id="RFbmsJqFYA8VDSO2oFp7-4" value="&lt;div style=&quot;background-color: rgb(255, 255, 254); font-size: 14px; line-height: 19px; white-space: pre;&quot;&gt;&lt;span&gt;&lt;font style=&quot;color: rgb(0, 0, 0);&quot; face=&quot;Times New Roman&quot;&gt;Sistem Aplikasi Chatbot&lt;/font&gt;&lt;/span&gt;&lt;/div&gt;" style="rounded=0;whiteSpace=wrap;html=1;direction=west;" vertex="1" parent="1">
          <mxGeometry x="380" y="220" width="170" height="80" as="geometry" />
        </mxCell>
        <mxCell id="RFbmsJqFYA8VDSO2oFp7-5" value="" style="endArrow=classic;html=1;rounded=0;" edge="1" parent="1">
          <mxGeometry width="50" height="50" relative="1" as="geometry">
            <mxPoint x="550" y="239.5" as="sourcePoint" />
            <mxPoint x="640" y="239.5" as="targetPoint" />
          </mxGeometry>
        </mxCell>
        <mxCell id="RFbmsJqFYA8VDSO2oFp7-6" value="" style="endArrow=classic;html=1;rounded=0;" edge="1" parent="1">
          <mxGeometry width="50" height="50" relative="1" as="geometry">
            <mxPoint x="640" y="279.5" as="sourcePoint" />
            <mxPoint x="550" y="279.5" as="targetPoint" />
          </mxGeometry>
        </mxCell>
        <mxCell id="RFbmsJqFYA8VDSO2oFp7-7" value="&lt;div style=&quot;background-color: rgb(255, 255, 254); font-size: 14px; line-height: 19px; white-space: pre;&quot;&gt;&lt;span&gt;&lt;font style=&quot;color: rgb(0, 0, 0);&quot; face=&quot;Times New Roman&quot;&gt;JSON Files&lt;/font&gt;&lt;/span&gt;&lt;/div&gt;" style="rounded=0;whiteSpace=wrap;html=1;" vertex="1" parent="1">
          <mxGeometry x="640" y="220" width="170" height="80" as="geometry" />
        </mxCell>
        <mxCell id="RFbmsJqFYA8VDSO2oFp7-8" value="&lt;div style=&quot;background-color: rgb(255, 255, 254); line-height: 19px; white-space-collapse: preserve;&quot;&gt;&lt;span&gt;&lt;font face=&quot;Times New Roman&quot; style=&quot;color: rgb(0, 0, 0);&quot;&gt;Memasukkan pertanyaan&lt;/font&gt;&lt;/span&gt;&lt;/div&gt;" style="text;html=1;align=center;verticalAlign=middle;resizable=0;points=[];autosize=1;strokeColor=none;fillColor=none;" vertex="1" parent="1">
          <mxGeometry x="265" y="190" width="140" height="30" as="geometry" />
        </mxCell>
        <mxCell id="RFbmsJqFYA8VDSO2oFp7-9" value="&lt;div style=&quot;background-color: rgb(255, 255, 254); line-height: 19px; white-space-collapse: preserve;&quot;&gt;&lt;span&gt;&lt;font face=&quot;Times New Roman&quot; style=&quot;color: rgb(0, 0, 0);&quot;&gt;Menampilkan respons&lt;/font&gt;&lt;/span&gt;&lt;/div&gt;" style="text;html=1;align=center;verticalAlign=middle;resizable=0;points=[];autosize=1;strokeColor=none;fillColor=none;" vertex="1" parent="1">
          <mxGeometry x="270" y="300" width="130" height="30" as="geometry" />
        </mxCell>
        <mxCell id="RFbmsJqFYA8VDSO2oFp7-10" value="&lt;div style=&quot;background-color: rgb(255, 255, 254); line-height: 19px; white-space-collapse: preserve;&quot;&gt;&lt;span&gt;&lt;font style=&quot;color: rgb(0, 0, 0);&quot; face=&quot;Times New Roman&quot;&gt;Mengambil data&lt;/font&gt;&lt;/span&gt;&lt;/div&gt;" style="text;html=1;align=center;verticalAlign=middle;resizable=0;points=[];autosize=1;strokeColor=none;fillColor=none;" vertex="1" parent="1">
          <mxGeometry x="545" y="190" width="100" height="30" as="geometry" />
        </mxCell>
        <mxCell id="RFbmsJqFYA8VDSO2oFp7-11" value="&lt;div style=&quot;background-color: rgb(255, 255, 254); line-height: 19px; white-space-collapse: preserve;&quot;&gt;&lt;span&gt;&lt;font face=&quot;Times New Roman&quot; style=&quot;color: rgb(0, 0, 0);&quot;&gt;Mengirimkan data&lt;/font&gt;&lt;/span&gt;&lt;/div&gt;" style="text;html=1;align=center;verticalAlign=middle;resizable=0;points=[];autosize=1;strokeColor=none;fillColor=none;" vertex="1" parent="1">
          <mxGeometry x="545" y="300" width="110" height="30" as="geometry" />
        </mxCell>
      </root>
    </mxGraphModel>
  </diagram>
</mxfile>
